<?xml version="1.0" encoding="UTF-8" standalone="no"?>
<svg
   version="1.1"
   id="Layer_1"
   x="0px"
   y="0px"
   width="1024"
   viewBox="0 0 1024 1024"
   enable-background="new 0 0 1024 1024"
   xml:space="preserve"
   sodipodi:docname="nahka.svg"
   height="1024"
   inkscape:version="1.2.2 (b0a8486541, 2022-12-01)"
   inkscape:export-filename="nahka.png"
   inkscape:export-xdpi="96"
   inkscape:export-ydpi="96"
   xmlns:inkscape="http://www.inkscape.org/namespaces/inkscape"
   xmlns:sodipodi="http://sodipodi.sourceforge.net/DTD/sodipodi-0.dtd"
   xmlns="http://www.w3.org/2000/svg"
   xmlns:svg="http://www.w3.org/2000/svg"><defs
   id="defs41"><linearGradient
     id="linearGradient2961"
     inkscape:swatch="solid"><stop
       style="stop-color:#000000;stop-opacity:1;"
       offset="0"
       id="stop2959" /></linearGradient></defs><sodipodi:namedview
   id="namedview39"
   pagecolor="#505050"
   bordercolor="#eeeeee"
   borderopacity="1"
   inkscape:showpageshadow="0"
   inkscape:pageopacity="0"
   inkscape:pagecheckerboard="0"
   inkscape:deskcolor="#505050"
   showgrid="false"
   inkscape:zoom="0.57776957"
   inkscape:cx="176.54097"
   inkscape:cy="556.45021"
   inkscape:window-width="1920"
   inkscape:window-height="1012"
   inkscape:window-x="1920"
   inkscape:window-y="32"
   inkscape:window-maximized="1"
   inkscape:current-layer="Layer_1" />
<rect
   style="fill:#797256;fill-opacity:1;stroke:#797256;stroke-width:100;stroke-linecap:square;stroke-linejoin:miter;stroke-dasharray:none;stroke-opacity:1;paint-order:stroke fill markers"
   id="rect5341"
   width="800"
   height="800"
   x="112.17047"
   y="112"
   rx="400"
   ry="400" /><path
   fill="#fafaf7"
   opacity="1"
   stroke="none"
   d="m 693.03918,587.50924 c -15.57034,67.71571 -32.12191,133.11207 -45.20876,199.19482 -8.58235,43.33753 -10.90913,86.91784 10.35087,129.26883 15.01268,29.90595 -2.10634,71.09486 -32.43691,88.23801 -32.79302,18.5352 -75.4515,9.2145 -101.37548,-21.73188 -42.24072,-50.42479 -48.37527,-110.77863 -35.05762,-170.0707 18.35241,-81.70677 45.67042,-161.40873 69.38165,-241.90069 29.14535,-98.93984 58.54625,-197.80443 87.74769,-296.72792 3.51716,-17.02614 -10.80646,-6.05032 -14.3016,-0.46511 -75.00174,114.67755 -150.42278,229.08157 -225.26036,343.86601 -34.04806,52.22264 -66.67385,105.37193 -100.62403,157.65965 -15.71138,24.1977 -41.72518,36.44192 -60.61052,30.68275 -20.64898,-6.29691 -36.90278,-31.06476 -35.29178,-60.49079 1.1637,-21.26034 4.36723,-40.15027 12.1012,-63.02131 29.00151,-85.76361 78.71439,-163.08907 118.49434,-244.43574 5.0518,-9.98468 16.31677,-20.19911 25.09953,-16.40873 8.27167,4.94323 7.82156,15.52613 5.36613,21.57487 -15.0046,36.96176 -32.37626,72.96766 -47.2095,109.99287 -20.41023,50.9463 -39.37715,102.47373 -58.63727,153.87388 -2.22678,5.94322 -3.11801,16.96404 1.8571,21.66434 7.30218,-12.92889 15.2799,-25.52666 21.80351,-38.83702 C 364.0718,536.72901 452.17829,391.69335 551.89611,254.37147 609.86484,174.5422 677.26576,101.54693 740.7507,25.751372 753.12496,10.977423 769.44543,5.9559686 787.93716,13.482465 807.47988,21.436391 816.91269,37.07213 812.86219,57.320446 799.9775,121.73321 786.45523,186.03941 771.82617,250.07753 746.25804,361.9999 719.68279,473.69251 693.03918,587.50899 Z"
   id="path36"
   sodipodi:nodetypes="cssssssccsssssccssscsssssscc"
   style="stroke:#797256;stroke-width:19.6032;stroke-linecap:round;stroke-linejoin:round;stroke-dasharray:none;stroke-opacity:1;paint-order:stroke fill markers" />

















</svg>
