<?xml version="1.0" encoding="UTF-8" standalone="no"?>
<svg
   version="1.1"
   id="Layer_1"
   x="0px"
   y="0px"
   width="1024.3409"
   viewBox="0 0 1024.3409 1024"
   enable-background="new 0 0 1024 1024"
   xml:space="preserve"
   sodipodi:docname="nahka.svg"
   height="1024"
   inkscape:version="1.2.2 (b0a8486541, 2022-12-01)"
   inkscape:export-filename="nahka.png"
   inkscape:export-xdpi="96"
   inkscape:export-ydpi="96"
   xmlns:inkscape="http://www.inkscape.org/namespaces/inkscape"
   xmlns:sodipodi="http://sodipodi.sourceforge.net/DTD/sodipodi-0.dtd"
   xmlns="http://www.w3.org/2000/svg"
   xmlns:svg="http://www.w3.org/2000/svg"><defs
   id="defs41" /><sodipodi:namedview
   id="namedview39"
   pagecolor="#505050"
   bordercolor="#eeeeee"
   borderopacity="1"
   inkscape:showpageshadow="0"
   inkscape:pageopacity="0"
   inkscape:pagecheckerboard="0"
   inkscape:deskcolor="#505050"
   showgrid="false"
   inkscape:zoom="0.57498852"
   inkscape:cx="330.44138"
   inkscape:cy="653.05652"
   inkscape:window-width="1920"
   inkscape:window-height="1012"
   inkscape:window-x="1920"
   inkscape:window-y="32"
   inkscape:window-maximized="1"
   inkscape:current-layer="Layer_1" />
<rect
   style="fill:#797256;fill-opacity:1;stroke:#b34242;stroke-width:0;stroke-linecap:square;stroke-linejoin:miter;stroke-dasharray:none;stroke-opacity:1;paint-order:fill markers stroke"
   id="rect5341"
   width="1024"
   height="1024"
   x="0.17046422"
   y="0.15273444"
   rx="125.13949"
   ry="125.13949" />

















<g
   id="g5376"
   transform="matrix(4.2314065,0,0,4.2314045,2308.0574,-1015.593)"><rect
     style="fill:none;fill-opacity:1;stroke:#ffffff;stroke-width:9.01802;stroke-linecap:butt;stroke-linejoin:round;stroke-dasharray:none;stroke-opacity:1"
     id="rect472"
     width="232.98198"
     height="232.98198"
     x="-540.90942"
     y="244.55833"
     rx="20.170597"
     ry="20.19096" /><path
     fill="#fafaf7"
     opacity="1"
     stroke="none"
     d="m -388.1822,376.19212 c -3.11676,13.55484 -6.42993,26.64541 -9.04956,39.87338 -1.71795,8.67499 -2.18371,17.39859 2.07196,25.8761 3.00513,5.98636 -0.42163,14.23126 -6.49298,17.66284 -6.56427,3.71026 -15.10333,1.84451 -20.2926,-4.35013 -8.45544,-10.09366 -9.68341,-22.17487 -7.01758,-34.04352 3.67365,-16.35547 9.14197,-32.30963 13.88831,-48.42193 5.8341,-19.80506 11.71936,-39.59506 17.56469,-59.39685 0.70404,-3.40817 -2.16316,-1.21111 -2.86279,-0.0931 -15.0133,22.95532 -30.11053,45.85589 -45.09097,68.83261 -6.81549,10.45355 -13.34628,21.09259 -20.14218,31.55917 -3.14499,4.84372 -8.35224,7.29468 -12.13257,6.14185 -4.13336,-1.26047 -7.38693,-6.21832 -7.06445,-12.10861 0.23294,-4.25574 0.8742,-8.03699 2.42233,-12.61515 5.80531,-17.16754 15.75647,-32.64599 23.71933,-48.92938 1.01123,-1.99866 3.26617,-4.04331 5.02424,-3.28458 1.65576,0.9895 1.56566,3.10791 1.07415,4.3187 -3.00351,7.39874 -6.48084,14.60614 -9.45005,22.01758 -4.08557,10.19806 -7.88223,20.51245 -11.73758,30.80136 -0.44574,1.18967 -0.62414,3.39574 0.37174,4.33661 1.4617,-2.58801 3.05862,-5.10974 4.36447,-7.77411 14.98181,-30.56766 32.61832,-59.59985 52.5791,-87.08795 11.60376,-15.97965 25.09558,-30.59131 37.80353,-45.76352 2.47699,-2.95734 5.7439,-3.9625 9.44544,-2.4559 3.91192,1.59216 5.80011,4.72201 4.98931,8.77517 -2.57916,12.89368 -5.28595,25.76603 -8.21429,38.58472 -5.11804,22.40381 -10.43768,44.76163 -15.771,67.54459 z"
     id="path36"
     sodipodi:nodetypes="cssssssccsssssccssscsssssscc" /></g></svg>
